<svg height="512pt" fill="gray" viewBox="0 0 512 512.00101" width="512pt" xmlns="http://www.w3.org/2000/svg"><path d="m488.25 23.742188c-15.3125-15.308594-35.667969-23.742188-57.320312-23.742188-21.65625 0-42.011719 8.433594-57.324219 23.742188l-336.335938 336.335937c-1.925781 1.925781-3.261719 4.316406-3.933593 6.90625-.003907-.003906-.011719-.015625-.011719-.015625l-32.835938 126.074219c-1.351562 5.195312.148438 10.722656 3.949219 14.523437 2.875 2.875 6.742188 4.433594 10.707031 4.433594 1.269531 0 2.550781-.160156 3.816407-.488281l126.0625-32.839844s-.015626-.007813-.019532-.007813c2.53125-.652343 4.929688-1.957031 6.910156-3.9375l336.335938-336.335937c15.3125-15.3125 23.742188-35.671875 23.742188-57.324219s-8.429688-42.011718-23.742188-57.324218zm-181.265625 109.449218 25.203125 25.203125-237.59375 237.59375-25.203125-25.199219zm-270.683594 342.507813 19.664063-75.507813 55.839844 55.835938zm104.90625-33.097657-25.199219-25.199218 237.59375-237.59375 25.199219 25.203125zm259.007813-259.003906-71.816406-71.820312 30.488281-30.488282 71.816406 71.820313zm66.621094-66.621094-14.71875 14.71875-71.816407-71.820312 14.71875-14.71875c9.589844-9.589844 22.34375-14.871094 35.910157-14.871094 13.5625 0 26.316406 5.28125 35.90625 14.871094 9.589843 9.59375 14.875 22.34375 14.875 35.910156 0 13.5625-5.28125 26.316406-14.875 35.910156zm0 0"/></svg>